Coordinates
version=1
nRows=5
nColumns=63
inDegrees=yes

Units are S.I. units (second, meters, Newtons, ...)
If the header above contains a line with 'inDegrees', this indicates whether rotational values are in degrees (yes) or radians (no).

endheader
time	pelvis_tilt	pelvis_list	pelvis_rotation	pelvis_tx	pelvis_ty	pelvis_tz	hip_flexion_r	hip_adduction_r	hip_rotation_r	knee_angle_r	knee_angle_r_beta	ankle_angle_r	subtalar_angle_r	mtp_angle_r	hip_flexion_l	hip_adduction_l	hip_rotation_l	knee_angle_l	knee_angle_l_beta	ankle_angle_l	subtalar_angle_l	mtp_angle_l	L5_S1_Flex_Ext	L5_S1_Lat_Bending	L5_S1_axial_rotation	L4_L5_Flex_Ext	L4_L5_Lat_Bending	L4_L5_axial_rotation	L3_L4_Flex_Ext	L3_L4_Lat_Bending	L3_L4_axial_rotation	L2_L3_Flex_Ext	L2_L3_Lat_Bending	L2_L3_axial_rotation	L1_L2_Flex_Ext	L1_L2_Lat_Bending	L1_L2_axial_rotation	L1_T12_Flex_Ext	L1_T12_Lat_Bending	L1_T12_axial_rotation	Abs_r3	Abs_r2	Abs_r1	Abs_t1	Abs_t2	neck_flexion	neck_bending	neck_rotation	arm_flex_r	arm_add_r	arm_rot_r	elbow_flex_r	pro_sup_r	wrist_flex_r	wrist_dev_r	arm_flex_l	arm_add_l	arm_rot_l	elbow_flex_l	pro_sup_l	wrist_flex_l	wrist_dev_l
      0.00000000	     -1.65067329	     -5.62952812	     89.89508174	      0.23400318	      0.76525934	      0.69638015	      5.27762951	     -1.90335336	    -18.38735254	     12.18324240	      0.21263769	     33.49413109	     18.69083462	      0.00000000	      4.33410828	      0.75891551	      1.00053254	     10.40058770	      0.18152450	     22.79477970	     -7.70866284	      0.00000000	      0.03564314	     -0.11489215	     -0.93500961	      0.06619288	     -0.15280656	     -0.99344771	      0.05855812	     -0.27934877	     -0.99344771	      0.04073655	     -0.27934877	     -0.81813341	      0.03309822	     -0.23428807	     -0.75969531	      0.02036649	     -0.17796794	     -0.70125721	      0.25459542	     -1.29968298	     -5.20024296	      0.00000000	      0.00000000	     11.04285202	     -0.68714190	     -0.40971533	      2.40482270	    -28.58625427	     47.86724549	     94.44083595	     56.06572237	      8.44855286	     -0.78954691	      3.36372010	    -24.51697731	     50.35764293	     91.33474349	     89.12593391	     -9.87319642	     -3.04088743
      0.01694915	     -1.22516625	     -5.70489604	     89.96358059	      0.23375485	      0.76361700	      0.69580378	      5.36876894	     -1.52669945	    -18.36322539	     12.46939065	      0.21763192	     33.68129517	     18.68300302	      0.00000000	      3.61523646	      0.32346068	      1.74163985	      9.25042018	      0.16145029	     22.99121231	     -7.82391949	      0.00000000	      0.05398761	     -0.07339605	     -0.76224125	      0.10026039	     -0.09761675	     -0.80988132	      0.08869624	     -0.17845516	     -0.80988132	      0.06170244	     -0.17845516	     -0.66696109	      0.05013289	     -0.14966923	     -0.61932101	      0.03084852	     -0.11369049	     -0.57168093	      0.38562810	     -0.83027083	     -4.23935714	      0.00000000	      0.00000000	     11.49410981	     -0.80163771	     -1.78281289	      0.55843915	    -28.10599894	     45.42984136	     93.98120220	     75.62580324	      7.99685434	     -5.87397690	      4.16129390	    -24.16363963	     50.59787483	     91.86665898	     88.97826943	     -9.07061425	      0.53638637
      0.03389831	     -0.86625575	     -5.70954699	     90.12951373	      0.23343808	      0.76237133	      0.69553899	      5.38417112	     -1.22118617	    -18.52748593	     12.69910005	      0.22164111	     33.83900287	     18.68978572	      0.00000000	      3.06444706	     -0.06267604	      2.30484461	      8.44885398	      0.14746032	     23.18145188	     -7.65114535	      0.00000000	      0.05766154	     -0.03640247	     -0.69296454	      0.10708325	     -0.04841529	     -0.73627482	      0.09473215	     -0.08850897	     -0.73627482	      0.06590137	     -0.08850897	     -0.60634397	      0.05354451	     -0.07423192	     -0.56303369	      0.03294780	     -0.05638743	     -0.51972341	      0.41187062	     -0.41179203	     -3.85406088	      0.00000000	      0.00000000	     11.83811350	     -0.97502581	     -2.55260317	     -0.16727787	    -27.97228404	     44.44461486	     94.22216685	     85.60094125	      6.21477247	     -7.89698605	      4.60842312	    -24.16649320	     50.89445776	     92.29394608	     88.87421412	     -9.04857896	      2.30860888
      0.05084746	     -0.62587908	     -5.72145114	     90.23283185	      0.23323189	      0.76146746	      0.69546685	      5.47948776	     -1.05714921	    -18.77234754	     13.02256645	      0.22728666	     33.97848893	     18.71450493	      0.00000000	      2.66437812	     -0.32678448	      2.80594103	      7.84205193	      0.13686963	     23.22844378	     -7.57390067	      0.00000000	      0.06026753	     -0.01076235	     -0.66050874	      0.11192283	     -0.01431393	     -0.70179053	      0.09901352	     -0.02616758	     -0.70179053	      0.06887976	     -0.02616758	     -0.57794515	      0.05596443	     -0.02194659	     -0.53666335	      0.03443687	     -0.01667088	     -0.49538155	      0.43048492	     -0.12174586	     -3.67355145	      0.00000000	      0.00000000	     12.08429912	     -0.99147017	     -2.89463303	     -0.48875479	    -27.78751091	     43.86281037	     94.36434394	     87.40540992	      6.24789518	     -8.06094366	      4.80222813	    -24.37505947	     51.11795144	     92.30109393	     88.80973632	     -8.61587508	      1.78029845
      0.06779661	     -0.45058724	     -5.77234853	     90.31600496	      0.23316186	      0.76078675	      0.69546704	      5.60828990	     -0.93383288	    -18.94076047	     13.28031146	      0.23178516	     34.07157768	     18.65063993	      0.00000000	      2.42630201	     -0.52904209	      3.24295420	      7.41209999	      0.12936555	     23.20162234	     -7.52739461	      0.00000000	      0.06480581	      0.00682747	     -0.65765002	      0.12035087	      0.00908054	     -0.69875315	      0.10646947	      0.01660031	     -0.69875315	      0.07406656	      0.01660031	     -0.57544377	      0.06017868	      0.01392258	     -0.53434064	      0.03703004	      0.01057575	     -0.49323752	      0.46290144	      0.07723371	     -3.65765213	      0.00000000	      0.00000000	     12.39059066	     -0.95583009	     -3.08535670	     -0.51355070	    -27.57533961	     43.47062795	     94.45976803	     87.28206632	      6.40139122	     -7.56903358	      4.84994419	    -24.72317954	     51.32268967	     92.24118106	     88.79566935	     -8.21897446	      1.03994240
